
<svg version="1.1" id="Ebene_2" xmlns="http://www.w3.org/2000/svg" xmlns:xlink="http://www.w3.org/1999/xlink" x="0px" y="0px"
	 viewBox="0 0 126 58" style="enable-background:new 0 0 126 58;" xml:space="preserve">
<polygon fill="#794A97" points="73.21,25.96 73.21,7.84 49.98,7.84 32.87,25.96 3,25.96 3,41.28 32.87,41.28 73.21,41.28 123,41.28 123,25.96"/>
<path fill="#E30613" d="M3,25.96v15.32h4.34c0-5.96,4.83-10.79,10.79-10.79c5.96,0,10.79,4.83,10.79,10.79h4.34V25.96H3z"/>
<path fill="#E30613" d="M73.21,25.96v15.32h14.11c0-5.96,4.83-10.79,10.79-10.79c5.96,0,10.79,4.83,10.79,10.79H123V25.96H73.21z"/>
<circle fill="#706F6F" cx="98.11" cy="41.28" r="8.88"/>
<circle fill="#706F6F" cx="18.13" cy="41.28" r="8.88"/>
<rect fill="#662483" x="33.26" y="25.96" width="39.96" height="15.32"/>
</svg>
